<?xml version="1.0" encoding="utf-8"?>
<!-- Generator: Adobe Illustrator 15.0.0, SVG Export Plug-In . SVG Version: 6.00 Build 0)  -->
<!DOCTYPE svg PUBLIC "-//W3C//DTD SVG 1.1//EN" "http://www.w3.org/Graphics/SVG/1.1/DTD/svg11.dtd">
<svg version="1.1" id="Layer_1" xmlns="http://www.w3.org/2000/svg" xmlns:xlink="http://www.w3.org/1999/xlink" x="0px" y="0px"
	 width="232.441px" height="90.49px" viewBox="0 0 232.441 90.49" enable-background="new 0 0 232.441 90.49" xml:space="preserve">
<g>
	<polygon points="75.276,29.791 69.481,29.791 69.481,32.638 72.531,32.638 72.531,68.63 67.652,68.63 66.837,68.63 62.06,68.63 
		62.06,0.61 40.607,0.61 40.607,3.457 59.213,3.457 59.213,71.477 66.837,71.477 67.652,71.477 75.276,71.477 	"/>
	<polygon points="83.817,24.91 69.481,24.91 69.481,27.757 80.97,27.757 80.97,71.477 89.409,71.477 89.409,68.63 83.817,68.63 	"/>
	<path d="M178.107,36.095c0-6.202-4.982-11.185-11.185-11.185h-3.356c-3.15,0-5.592,2.542-5.592,5.693
		c0,3.152,2.441,5.593,5.592,5.593h3.255v7.523c-6.305,0.102-11.082,4.982-11.082,11.185v10.879c0,6.304,4.981,11.184,11.184,11.184
		c3.457,0,3.457-0.609,3.457-0.609h10.472V73.51h-7.626v-2.235c-1.524,1.829-3.761,2.948-6.303,2.948
		c-4.677,0-8.438-3.762-8.438-8.439V54.904c0-4.677,3.762-8.439,8.438-8.439h2.644v-10.37c0-1.424-1.221-2.644-2.644-2.644h-3.356
		c-1.524,0-2.744-1.322-2.744-2.848c0-1.626,1.22-2.847,2.744-2.847h3.356c4.575,0,8.337,3.762,8.337,8.338v35.382h8.439V68.63
		h-5.592V36.095z"/>
	<path d="M101.954,24.3c-6.202,0-11.184,4.88-11.184,11.184v30.299c0,6.304,4.982,11.184,11.184,11.184
		c6.202,0,11.184-4.88,11.184-11.184V35.484C113.138,29.181,108.156,24.3,101.954,24.3z M110.292,55.107H99.209v10.676
		c0,1.525,1.22,2.745,2.745,2.745c1.424,0,2.644-1.22,2.644-2.745V64.97c0-1.627,1.322-2.847,2.847-2.847
		c1.627,0,2.847,1.22,2.847,2.847v0.813c0,4.677-3.762,8.439-8.338,8.439c-4.677,0-8.439-3.762-8.439-8.439V35.484
		c0-4.677,3.762-8.439,8.439-8.439c4.576,0,8.338,3.762,8.338,8.439V55.107z"/>
	<path d="M101.954,32.739c-1.525,0-2.745,1.22-2.745,2.745v13.93h5.389v-13.93C104.598,33.959,103.378,32.739,101.954,32.739z"/>
	<path d="M141.911,0c-6.202,0-11.185,4.982-11.185,11.184v54.599c0,6.304,4.982,11.184,11.185,11.184s11.184-4.88,11.184-11.184
		V11.184C153.095,4.982,148.113,0,141.911,0z M150.248,22.267c0,1.525-1.22,2.745-2.847,2.745c-1.525,0-2.847-1.22-2.847-2.745
		V11.184c0-1.525-1.22-2.745-2.644-2.745c-1.525,0-2.745,1.22-2.745,2.745v20.945c0,1.525,1.22,2.745,2.745,2.745
		c4.575,0,8.337,3.762,8.337,8.338v22.571c0,4.677-3.762,8.439-8.337,8.439c-4.677,0-8.439-3.762-8.439-8.439V54.802
		c0-1.626,1.322-2.847,2.848-2.847c1.627,0,2.847,1.221,2.847,2.847v10.981c0,1.525,1.22,2.745,2.745,2.745
		c1.424,0,2.644-1.22,2.644-2.745V43.212c0-1.424-1.22-2.644-2.644-2.644c-4.677,0-8.439-3.762-8.439-8.439V11.184
		c0-4.677,3.763-8.439,8.439-8.439c4.575,0,8.337,3.762,8.337,8.439V22.267z"/>
	<path d="M221.257,24.3c-6.202,0-11.184,4.88-11.184,11.184v30.299c0,6.304,4.981,11.184,11.184,11.184s11.185-4.88,11.185-11.184
		V35.484C232.441,29.181,227.459,24.3,221.257,24.3z M229.594,38.636c0,1.525-1.22,2.746-2.847,2.746
		c-1.525,0-2.847-1.221-2.847-2.746v-3.152c0-1.525-1.221-2.745-2.644-2.745c-1.524,0-2.746,1.22-2.746,2.745v9.354
		c0,1.424,1.222,2.644,2.746,2.644c4.575,0,8.337,3.762,8.337,8.438v9.862c0,4.677-3.762,8.439-8.337,8.439
		c-4.677,0-8.438-3.762-8.438-8.439v-3.152c0-1.525,1.321-2.745,2.847-2.745c1.626,0,2.846,1.22,2.846,2.745v3.152
		c0,1.525,1.222,2.745,2.746,2.745c1.423,0,2.644-1.22,2.644-2.745v-9.862c0-1.525-1.221-2.745-2.644-2.745
		c-4.677,0-8.438-3.762-8.438-8.337v-9.354c0-4.677,3.762-8.439,8.438-8.439c4.575,0,8.337,3.762,8.337,8.439V38.636z"/>
	<path d="M164.177,54.904v10.879c0,1.525,1.222,2.745,2.746,2.745c1.423,0,2.644-1.22,2.644-2.745V52.159h-2.644
		C165.398,52.159,164.177,53.379,164.177,54.904z"/>
	<path d="M196.245,24.3c-6.202,0-11.185,4.88-11.185,11.184v30.299c0,6.304,4.982,11.184,11.185,11.184s11.184-4.88,11.184-11.184
		V35.484C207.429,29.181,202.447,24.3,196.245,24.3z M204.582,38.636c0,1.525-1.22,2.746-2.847,2.746
		c-1.525,0-2.847-1.221-2.847-2.746v-3.152c0-1.525-1.22-2.745-2.644-2.745c-1.525,0-2.745,1.22-2.745,2.745v9.354
		c0,1.424,1.22,2.644,2.745,2.644c4.575,0,8.337,3.762,8.337,8.438v9.862c0,4.677-3.762,8.439-8.337,8.439
		c-4.677,0-8.439-3.762-8.439-8.439v-3.152c0-1.525,1.322-2.745,2.848-2.745c1.627,0,2.847,1.22,2.847,2.745v3.152
		c0,1.525,1.22,2.745,2.745,2.745c1.424,0,2.644-1.22,2.644-2.745v-9.862c0-1.525-1.22-2.745-2.644-2.745
		c-4.677,0-8.439-3.762-8.439-8.337v-9.354c0-4.677,3.763-8.439,8.439-8.439c4.575,0,8.337,3.762,8.337,8.439V38.636z"/>
	<path d="M21.35,27.757h8.439v38.026c0,1.525,1.22,2.745,2.745,2.745c1.423,0,2.644-1.22,2.644-2.745V27.757h8.54V24.91H21.35
		V27.757z"/>
	<rect x="3.152" y="0.61" width="16.979" height="2.847"/>
	<path d="M40.872,65.783c0,4.677-3.762,8.439-8.337,8.439c-4.677,0-8.439-3.762-8.439-8.439V29.791H21.35v35.993
		c0,6.304,4.982,11.184,11.184,11.184s11.184-4.88,11.184-11.184V29.791h-2.846V65.783z"/>
	<rect x="69.684" y="73.51" width="16.98" height="2.848"/>
	<path d="M14.438,79.306c0,4.575-3.762,8.337-8.337,8.337c-0.407,0-0.509,0-0.509,0c-1.525,0-2.745-1.22-2.745-2.847
		c0-1.525,1.22-2.847,2.745-2.847h0.509c1.423,0,2.643-1.221,2.643-2.643V5.49H3.152v2.847h2.847v70.867H5.592
		C2.44,79.204,0,81.644,0,84.796s2.44,5.694,5.592,5.694c0,0,0.102,0,0.509,0c6.202,0,11.184-4.982,11.184-11.184V8.337h2.847V5.49
		h-5.694V79.306z"/>
	<rect x="47.927" y="73.51" width="16.98" height="2.848"/>
	<path d="M78.123,20.335c3.457,0,6.507-2.949,6.507-6.405c0-3.355-3.05-6.304-6.507-6.304s-6.304,2.847-6.304,6.304
		C71.819,17.488,74.666,20.335,78.123,20.335z M78.123,10.473c1.932,0,3.661,1.627,3.661,3.457c0,1.932-1.729,3.559-3.661,3.559
		c-1.932,0-3.457-1.627-3.457-3.559C74.666,12.1,76.191,10.473,78.123,10.473z"/>
	<polygon points="45.081,68.63 45.081,71.477 53.52,71.477 53.52,5.49 46.606,5.49 46.606,8.337 50.774,8.337 50.774,68.63 	"/>
</g>
</svg>
