<?xml version="1.0" standalone="no"?>
<!DOCTYPE svg PUBLIC "-//W3C//DTD SVG 20010904//EN"
 "http://www.w3.org/TR/2001/REC-SVG-20010904/DTD/svg10.dtd">
<svg version="1.0" xmlns="http://www.w3.org/2000/svg"
 width="128.000000pt" height="128.000000pt" viewBox="0 0 128.000000 128.000000"
 preserveAspectRatio="xMidYMid meet">
<metadata>
Created by potrace 1.14, written by Peter Selinger 2001-2017
</metadata>
<g transform="translate(0.000000,128.000000) scale(0.100000,-0.100000)"
fill="#000000" stroke="none">
<path d="M593 836 c-66 -22 -92 -75 -68 -133 13 -31 48 -49 141 -73 51 -13 68
-31 60 -65 -13 -50 -103 -56 -144 -10 -12 15 -20 31 -17 36 4 5 -10 9 -30 9
-33 0 -36 -2 -30 -22 19 -70 58 -99 135 -104 87 -4 149 40 150 108 0 56 -31
84 -119 108 -41 11 -78 25 -83 32 -20 33 -3 63 42 71 36 6 68 -9 82 -38 8 -18
19 -25 40 -25 31 0 35 13 17 54 -21 45 -115 73 -176 52z"/>
<path d="M50 833 c0 -4 25 -85 56 -181 l57 -173 36 3 36 3 57 165 c31 91 57
171 57 178 1 7 -11 12 -28 12 -29 0 -30 -2 -72 -135 -23 -74 -45 -135 -48
-135 -3 0 -25 61 -49 135 -42 133 -43 135 -73 135 -16 0 -29 -3 -29 -7z"/>
<path d="M390 835 c-1 0 -1 -239 -1 -297 1 -58 1 -58 31 -58 l30 0 0 180 0
180 -30 -2 c-16 -1 -30 -2 -30 -3z"/>
<path d="M810 808 c0 -28 2 -29 43 -28 23 1 48 1 55 1 9 -1 12 -38 12 -151 l0
-150 30 0 c17 0 30 5 31 13 0 6 1 71 1 142 0 72 4 135 9 141 5 6 28 9 53 7 49
-4 58 3 50 35 -6 20 -12 21 -145 20 l-139 -1 0 -29z"/>
<path d="M1130 658 l0 -178 33 0 32 0 -1 168 c-1 92 -2 172 -3 179 0 6 -14 11
-31 11 l-30 -1 0 -179z"/>
</g>
</svg>
